<?xml version="1.0" encoding="UTF-8" standalone="no"?>
<svg width="32px" height="32px" viewBox="0 0 32 32" version="1.1" xmlns="http://www.w3.org/2000/svg" xmlns:xlink="http://www.w3.org/1999/xlink">
    <!-- Generator: Sketch 40.3 (33839) - http://www.bohemiancoding.com/sketch -->
    <title>social-1_logo-linkedin</title>
    <desc>Created with Sketch.</desc>
    <defs></defs>
    <g id="Page-1" stroke="none" stroke-width="1" fill="none" fill-rule="evenodd">
        <g id="social-1_logo-linkedin" fill="#FFFFFF">
            <path d="M30.7,0 L1.3,0 C0.6,0 0,0.6 0,1.3 L0,30.6 C0,31.4 0.6,32 1.3,32 L30.6,32 C31.3,32 31.9,31.4 31.9,30.7 L31.9,1.3 C32,0.6 31.4,0 30.7,0 L30.7,0 Z M9.5,27.3 L4.7,27.3 L4.7,12 L9.5,12 L9.5,27.3 L9.5,27.3 Z M7.1,9.9 C5.6,9.9 4.3,8.7 4.3,7.1 C4.3,5.6 5.5,4.3 7.1,4.3 C8.6,4.3 9.9,5.5 9.9,7.1 C9.9,8.7 8.6,9.9 7.1,9.9 L7.1,9.9 Z M27.3,27.3 L22.6,27.3 L22.6,19.9 C22.6,18.1 22.6,15.9 20.1,15.9 C17.6,15.9 17.3,17.8 17.3,19.8 L17.3,27.4 L12.6,27.4 L12.6,12 L17,12 L17,14.1 L17.1,14.1 C17.7,12.9 19.3,11.6 21.6,11.6 C26.4,11.6 27.3,14.8 27.3,18.9 L27.3,27.3 L27.3,27.3 Z" id="Shape"></path>
        </g>
    </g>
</svg>